<?xml version="1.0" standalone="no"?>
<!DOCTYPE svg PUBLIC "-//W3C//DTD SVG 20010904//EN"
 "http://www.w3.org/TR/2001/REC-SVG-20010904/DTD/svg10.dtd">
<svg version="1.0" xmlns="http://www.w3.org/2000/svg"
 width="2259.000000pt" height="1082.000000pt" viewBox="0 0 2259.000000 1082.000000"
 preserveAspectRatio="xMidYMid meet">

<g transform="translate(0.000000,1082.000000) scale(0.100000,-0.100000)"
fill="#000000" stroke="none">
<path d="M7109 10791 c-154 -103 -958 -902 -1480 -1471 -272 -297 -1244 -1380
-1959 -2183 -145 -163 -268 -297 -272 -297 -4 0 -59 38 -120 84 -389 289 -765
481 -1073 547 -140 30 -321 12 -428 -43 -131 -66 -227 -229 -227 -382 1 -203
155 -350 480 -456 226 -75 674 -149 905 -150 33 0 70 -3 83 -6 26 -7 71 49
-363 -459 -649 -760 -1461 -1758 -2106 -2590 -311 -401 -466 -634 -528 -792
-20 -51 -20 -52 -1 -76 35 -44 103 -47 116 -4 10 34 101 191 168 292 64 96
463 629 666 890 539 692 1324 1645 2087 2534 l186 216 101 8 c56 4 138 14 184
21 l83 13 107 -92 c665 -572 1453 -1517 1924 -2305 196 -328 423 -768 547
-1057 85 -199 85 -180 -1 -232 -433 -262 -943 -644 -1234 -924 -316 -303 -508
-625 -570 -955 -23 -124 -16 -312 16 -406 60 -176 216 -341 404 -426 133 -60
212 -74 421 -75 205 0 260 8 464 66 517 147 1071 539 1817 1284 574 574 869
920 1514 1780 257 343 660 896 800 1098 l54 77 256 84 c140 47 341 108 445
136 645 174 983 285 1296 425 68 30 124 53 125 52 1 -1 -13 -22 -32 -47 -180
-234 -207 -443 -74 -564 107 -97 269 -138 690 -176 777 -70 950 -73 3130 -67
2302 7 3243 23 3375 58 77 21 97 68 50 115 -23 23 -32 25 -73 20 -93 -12 -537
-26 -1112 -36 -1016 -17 -3746 -24 -4215 -11 -802 22 -1296 58 -1523 111 -167
40 -232 100 -232 215 0 115 61 226 228 411 105 116 369 365 535 504 94 79 98
84 95 118 -4 43 -39 69 -79 59 -14 -4 -83 -59 -155 -123 -338 -305 -491 -405
-859 -562 -248 -106 -498 -185 -1095 -346 -113 -30 -302 -84 -420 -120 -118
-36 -215 -64 -217 -62 -2 1 29 50 69 107 160 231 754 1166 822 1293 29 54 24
81 -17 106 -40 25 -53 19 -201 -89 -361 -265 -602 -371 -966 -428 -143 -22
-602 -25 -745 -5 -234 34 -414 83 -576 159 l-96 45 -6 53 c-3 30 -13 70 -23
90 -51 107 -227 211 -323 190 -40 -9 -91 -60 -91 -91 0 -66 70 -154 208 -261
l84 -66 -5 -40 c-8 -55 -95 -232 -173 -350 -148 -222 -483 -520 -721 -641
-208 -106 -418 -124 -510 -43 -49 43 -65 86 -64 171 2 198 119 413 360 660
203 207 324 297 560 414 75 37 139 72 143 77 15 20 8 64 -11 75 -63 33 -192
-16 -392 -148 -375 -247 -691 -632 -770 -939 -22 -86 -26 -199 -10 -260 23
-86 95 -155 197 -189 90 -29 251 -25 369 10 178 52 370 160 560 313 127 102
333 314 408 420 69 97 158 265 183 346 14 45 21 56 33 51 398 -163 1085 -235
1526 -159 233 41 571 192 769 346 l28 22 -17 -34 c-42 -82 -344 -554 -577
-904 l-253 -380 -170 -57 c-394 -133 -663 -234 -1011 -379 -674 -280 -1572
-713 -2081 -1002 l-131 -74 -68 161 c-341 813 -940 1745 -1620 2521 -236 269
-651 684 -879 878 -23 19 -26 27 -15 30 8 3 125 26 260 52 393 75 1126 265
1705 440 666 202 1532 525 2357 878 414 178 628 277 1010 468 943 472 1533
852 1947 1254 318 308 471 560 488 801 7 105 1 129 -37 143 -63 21 -100 -16
-100 -102 -1 -275 -239 -590 -755 -999 -569 -451 -1298 -861 -2372 -1334
-1112 -489 -2183 -870 -3373 -1199 -399 -110 -941 -231 -1192 -266 l-87 -12
-70 53 c-39 28 -71 54 -71 57 0 2 85 100 188 216 103 117 268 304 367 417 460
526 1512 1687 1872 2068 682 718 937 973 1153 1152 139 115 140 116 140 149 0
37 -30 71 -63 71 -13 0 -43 -13 -68 -29z m-4838 -3484 c249 -65 650 -284 937
-512 75 -60 82 -68 70 -83 -8 -9 -36 -43 -64 -76 l-49 -59 -160 7 c-479 21
-844 88 -1070 197 -103 49 -172 102 -212 163 -28 41 -33 57 -33 110 0 128 79
227 215 273 62 20 249 10 366 -20z m1153 -686 c3 -5 -4 -11 -16 -14 -25 -7
-33 -3 -23 12 8 13 32 14 39 2z m6216 -2396 c0 -10 -462 -645 -714 -980 -316
-422 -532 -693 -791 -995 -698 -816 -1342 -1413 -1880 -1745 -249 -154 -552
-279 -780 -321 -139 -26 -381 -26 -485 0 -252 63 -415 214 -466 433 -21 90
-14 278 15 384 109 400 464 808 1102 1266 253 182 665 450 676 439 9 -9 112
-322 148 -450 38 -136 107 -438 125 -553 19 -119 69 -155 131 -94 34 35 35 37
9 178 -42 235 -117 507 -223 815 l-64 188 141 79 c864 485 1887 950 2821 1282
221 79 235 83 235 74z"/>
<path d="M11589 7033 c-20 -21 -64 -73 -97 -115 -34 -42 -94 -105 -133 -139
-64 -57 -70 -66 -67 -97 2 -24 11 -41 29 -55 26 -19 28 -19 65 -1 44 21 158
132 263 257 83 98 94 134 52 169 -37 29 -72 23 -112 -19z"/>
<path d="M13928 6682 c-53 -43 -136 -100 -184 -127 -140 -80 -160 -110 -108
-162 21 -21 32 -24 61 -20 39 7 163 81 276 166 112 84 137 110 137 146 0 36
-35 75 -66 75 -10 0 -63 -35 -116 -78z"/>
<path d="M10967 2670 c-191 -48 -299 -243 -223 -405 45 -96 137 -160 314 -217
203 -65 282 -128 282 -225 0 -75 -79 -158 -174 -184 -123 -33 -285 22 -332
113 -15 29 -11 29 -112 -7 -20 -7 19 -74 73 -124 223 -206 618 -101 661 175
10 68 -19 148 -77 209 -60 64 -129 101 -275 149 -196 65 -264 122 -264 220 0
77 31 124 104 161 53 26 70 29 145 29 93 -1 139 -15 199 -60 l34 -26 36 33
c20 19 39 36 42 37 13 9 -87 83 -138 103 -64 25 -228 35 -295 19z"/>
<path d="M16456 2664 c-195 -47 -374 -228 -421 -425 -32 -135 -15 -281 47
-409 42 -89 168 -213 260 -258 229 -112 496 -67 675 114 143 145 199 334 158
529 -46 218 -216 395 -430 450 -73 18 -210 18 -289 -1z m304 -125 c117 -40
214 -132 273 -258 24 -51 31 -80 35 -155 8 -153 -35 -261 -144 -366 -93 -89
-170 -122 -298 -128 -85 -3 -111 -1 -165 18 -333 112 -435 518 -194 771 125
131 319 177 493 118z"/>
<path d="M13422 2613 l3 -58 147 -3 148 -3 2 -512 3 -512 58 -3 57 -3 0 515 0
515 148 3 147 3 3 58 3 57 -361 0 -361 0 3 -57z"/>
<path d="M19220 2095 l0 -575 55 0 55 0 0 260 0 261 133 -3 132 -3 134 -257
134 -258 58 0 c32 0 60 3 62 8 2 4 -56 122 -129 262 l-132 254 51 28 c132 71
198 214 164 353 -27 110 -95 187 -198 226 -43 17 -79 19 -284 19 l-235 0 0
-575z m498 441 c15 -8 39 -27 53 -43 92 -98 75 -239 -36 -308 -48 -30 -48 -30
-227 -33 l-178 -4 0 201 0 201 180 0 c136 0 188 -3 208 -14z"/>
<path d="M21992 2098 l3 -573 295 0 295 0 0 55 0 55 -237 3 -238 2 0 200 0
200 188 2 187 3 0 55 0 55 -187 3 -188 2 0 195 0 195 238 2 237 3 3 58 3 57
-301 0 -300 0 2 -572z"/>
</g>
</svg>
